HIERARCHY
ROOT Model
{
	OFFSET 0 0 0
	CHANNELS 6 Xposition Yposition Zposition Zrotation Xrotation Yrotation
	JOINT Model1
	{
		OFFSET 0 -2.25479 2.99384
		CHANNELS 3 Zrotation Xrotation Yrotation
		JOINT Model2
		{
			OFFSET 12.111 0 0
			CHANNELS 3 Zrotation Xrotation Yrotation
			JOINT Model3
			{
				OFFSET 11.5502 0 0
				CHANNELS 3 Zrotation Xrotation Yrotation
				JOINT Model4
				{
					OFFSET 11.781 0 0
					CHANNELS 3 Zrotation Xrotation Yrotation
					JOINT Model5
					{
						OFFSET 20.0601 0 0
						CHANNELS 3 Zrotation Xrotation Yrotation
						JOINT Model6
						{
							OFFSET 11.1962 0 0
							CHANNELS 3 Zrotation Xrotation Yrotation
							End Site
							{
								OFFSET 0 0 0
							}
						}
					}
					JOINT Model7
					{
						OFFSET 10.8223 0.417534 3.51114
						CHANNELS 3 Zrotation Xrotation Yrotation
						JOINT Model8
						{
							OFFSET -6.07944 0 0
							CHANNELS 3 Zrotation Xrotation Yrotation
							JOINT Model9
							{
								OFFSET -0.277405 10.39 -0.051239
								CHANNELS 3 Zrotation Xrotation Yrotation
								JOINT Model10
								{
									OFFSET -3.43909 -0.282043 1.86679
									CHANNELS 3 Zrotation Xrotation Yrotation
									JOINT Model11
									{
										OFFSET 13.0269 0 0
										CHANNELS 3 Zrotation Xrotation Yrotation
										JOINT Model12
										{
											OFFSET 10.8866 0 0
											CHANNELS 3 Zrotation Xrotation Yrotation
											JOINT Model13
											{
												OFFSET 16.7317 0 0
												CHANNELS 3 Zrotation Xrotation Yrotation
												JOINT Model14
												{
													OFFSET 11.8292 0 0
													CHANNELS 3 Zrotation Xrotation Yrotation
													JOINT Model15
													{
														OFFSET 4.82751 -3.73566 -0.836517
														CHANNELS 3 Zrotation Xrotation Yrotation
														JOINT Model16
														{
															OFFSET 3.75311 -0.0582886 -0.0186462
															CHANNELS 3 Zrotation Xrotation Yrotation
															JOINT Model17
															{
																OFFSET 2.88689 0.0192337 0.014801
																CHANNELS 3 Zrotation Xrotation Yrotation
																End Site
																{
																	OFFSET 0 0 0
																}
															}
														}
													}
													JOINT Model18
													{
														OFFSET 9.72197 -3.06458 0.23877
														CHANNELS 3 Zrotation Xrotation Yrotation
														JOINT Model19
														{
															OFFSET 4.61131 0 0
															CHANNELS 3 Zrotation Xrotation Yrotation
															JOINT Model20
															{
																OFFSET 2.8969 -7.62939e-006 0
																CHANNELS 3 Zrotation Xrotation Yrotation
																End Site
																{
																	OFFSET 0 0 0
																}
															}
														}
													}
													JOINT Model21
													{
														OFFSET 9.54431 -0.745064 0.588928
														CHANNELS 3 Zrotation Xrotation Yrotation
														JOINT Model22
														{
															OFFSET 5.33978 0 0
															CHANNELS 3 Zrotation Xrotation Yrotation
															JOINT Model23
															{
																OFFSET 3.03619 7.62939e-006 0
																CHANNELS 3 Zrotation Xrotation Yrotation
																End Site
																{
																	OFFSET 0 0 0
																}
															}
														}
													}
													JOINT Model24
													{
														OFFSET 9.47758 1.51286 0.485107
														CHANNELS 3 Zrotation Xrotation Yrotation
														JOINT Model25
														{
															OFFSET 4.96136 7.62939e-006 0
															CHANNELS 3 Zrotation Xrotation Yrotation
															JOINT Model26
															{
																OFFSET 2.51965 0 0
																CHANNELS 3 Zrotation Xrotation Yrotation
																End Site
																{
																	OFFSET 0 0 0
																}
															}
														}
													}
													JOINT Model27
													{
														OFFSET 9.34247 3.34117 -0.239288
														CHANNELS 3 Zrotation Xrotation Yrotation
														JOINT Model28
														{
															OFFSET 3.28259 2.28882e-005 0
															CHANNELS 3 Zrotation Xrotation Yrotation
															JOINT Model29
															{
																OFFSET 2.1292 0 0
																CHANNELS 3 Zrotation Xrotation Yrotation
																End Site
																{
																	OFFSET 0 0 0
																}
															}
														}
													}
												}
											}
										}
									}
								}
							}
						}
					}
					JOINT Model30
					{
						OFFSET 10.8223 0.4179 -3.51108
						CHANNELS 3 Zrotation Xrotation Yrotation
						JOINT Model31
						{
							OFFSET 6.07944 0 0
							CHANNELS 3 Zrotation Xrotation Yrotation
							JOINT Model32
							{
								OFFSET 0.277405 -10.39 0.051239
								CHANNELS 3 Zrotation Xrotation Yrotation
								JOINT Model33
								{
									OFFSET 3.43909 0.282043 -1.86679
									CHANNELS 3 Zrotation Xrotation Yrotation
									JOINT Model34
									{
										OFFSET -13.0269 0 0
										CHANNELS 3 Zrotation Xrotation Yrotation
										JOINT Model35
										{
											OFFSET -10.8866 0 0
											CHANNELS 3 Zrotation Xrotation Yrotation
											JOINT Model36
											{
												OFFSET -16.7317 0 0
												CHANNELS 3 Zrotation Xrotation Yrotation
												JOINT Model37
												{
													OFFSET -11.8292 0 0
													CHANNELS 3 Zrotation Xrotation Yrotation
													JOINT Model38
													{
														OFFSET -4.82751 3.73566 0.836517
														CHANNELS 3 Zrotation Xrotation Yrotation
														JOINT Model39
														{
															OFFSET -3.75311 0.0582886 0.0186462
															CHANNELS 3 Zrotation Xrotation Yrotation
															JOINT Model40
															{
																OFFSET -2.88687 -0.0192337 -0.014801
																CHANNELS 3 Zrotation Xrotation Yrotation
																End Site
																{
																	OFFSET 0 0 0
																}
															}
														}
													}
													JOINT Model41
													{
														OFFSET -9.72198 3.06459 -0.23877
														CHANNELS 3 Zrotation Xrotation Yrotation
														JOINT Model42
														{
															OFFSET -4.6113 0 0
															CHANNELS 3 Zrotation Xrotation Yrotation
															JOINT Model43
															{
																OFFSET -2.89691 0 0
																CHANNELS 3 Zrotation Xrotation Yrotation
																End Site
																{
																	OFFSET 0 0 0
																}
															}
														}
													}
													JOINT Model44
													{
														OFFSET -9.54431 0.745064 -0.588928
														CHANNELS 3 Zrotation Xrotation Yrotation
														JOINT Model45
														{
															OFFSET -5.33978 0 0
															CHANNELS 3 Zrotation Xrotation Yrotation
															JOINT Model46
															{
																OFFSET -3.03619 -1.52588e-005 0
																CHANNELS 3 Zrotation Xrotation Yrotation
																End Site
																{
																	OFFSET 0 0 0
																}
															}
														}
													}
													JOINT Model47
													{
														OFFSET -9.4776 -1.51286 -0.485107
														CHANNELS 3 Zrotation Xrotation Yrotation
														JOINT Model48
														{
															OFFSET -4.96136 -1.52588e-005 0
															CHANNELS 3 Zrotation Xrotation Yrotation
															JOINT Model49
															{
																OFFSET -2.51965 0 0
																CHANNELS 3 Zrotation Xrotation Yrotation
																End Site
																{
																	OFFSET 0 0 0
																}
															}
														}
													}
													JOINT Model50
													{
														OFFSET -9.34247 -3.34118 0.239288
														CHANNELS 3 Zrotation Xrotation Yrotation
														JOINT Model51
														{
															OFFSET -3.28259 -2.28882e-005 0
															CHANNELS 3 Zrotation Xrotation Yrotation
															JOINT Model52
															{
																OFFSET -2.12921 0 0
																CHANNELS 3 Zrotation Xrotation Yrotation
																End Site
																{
																	OFFSET 0 0 0
																}
															}
														}
													}
												}
											}
										}
									}
								}
							}
						}
					}
				}
			}
		}
	}
	JOINT Model53
	{
		OFFSET 4.38025 -2.14632 -1.11517
		CHANNELS 3 Zrotation Xrotation Yrotation
		JOINT Model54
		{
			OFFSET 0 0 4.94998
			CHANNELS 3 Zrotation Xrotation Yrotation
			JOINT Model55
			{
				OFFSET 18.5642 0 0
				CHANNELS 3 Zrotation Xrotation Yrotation
				JOINT Model56
				{
					OFFSET 21.2884 0 0
					CHANNELS 3 Zrotation Xrotation Yrotation
					JOINT Model57
					{
						OFFSET 30.261 0 0
						CHANNELS 3 Zrotation Xrotation Yrotation
						JOINT Model58
						{
							OFFSET 11.7259 0 0
							CHANNELS 3 Zrotation Xrotation Yrotation
							JOINT Model59
							{
								OFFSET 10.682 0 0
								CHANNELS 3 Zrotation Xrotation Yrotation
								End Site
								{
									OFFSET 0 0 0
								}
							}
						}
					}
				}
			}
		}
	}
	JOINT Model60
	{
		OFFSET -4.38025 -2.14632 -1.11517
		CHANNELS 3 Zrotation Xrotation Yrotation
		JOINT Model61
		{
			OFFSET 0 0 -4.94998
			CHANNELS 3 Zrotation Xrotation Yrotation
			JOINT Model62
			{
				OFFSET -18.5642 0 0
				CHANNELS 3 Zrotation Xrotation Yrotation
				JOINT Model63
				{
					OFFSET -21.2884 0 0
					CHANNELS 3 Zrotation Xrotation Yrotation
					JOINT Model64
					{
						OFFSET -30.261 0 0
						CHANNELS 3 Zrotation Xrotation Yrotation
						JOINT Model65
						{
							OFFSET -11.7259 0 0
							CHANNELS 3 Zrotation Xrotation Yrotation
							JOINT Model66
							{
								OFFSET -10.682 0 0
								CHANNELS 3 Zrotation Xrotation Yrotation
								End Site
								{
									OFFSET 0 0 0
								}
							}
						}
					}
				}
			}
		}
	}
}
MOTION
Frames: 6
Frame Time: 0.033333
-407.46 175.418 -458.878 63.1511 -52.96 66.9061 -180 4.29621e-031 -90 1.68728 0.201507 0.463173 3.37291 0.41612 0.920222 3.37291 0.416557 0.920196 10.912 -0.754181 6.62856 4.12081 0.526725 -12.9397 120.092 75.5343 58.4939 21.1793 33.901 0.886194 -167.277 84.4999 48.8109 96.8725 -32.0345 -12.0262 3.55333e-005 -40.0121 3.87398e-005 -30.6924 -14.2615 0.321508 4.39173e-007 -21.894 2.5895e-007 20.5574 2.66791 14.6343 -72.0648 39.0385 39.3397 33.3638 2.10362 14.835 0.588947 0.308273 6.35287 -99.6409 81.413 100.35 -0.0181409 2.77678e-005 -0.117315 -0.124139 0.00241111 -0.799296 -79.8382 79.5773 80.5374 -0.000225768 -0.000220933 2.21859e-005 -0.000956215 0.000122881 -2.73323e-005 -66.7416 80.4058 67.2171 -0.000437124 1.59348e-005 -2.73292e-005 -0.000136592 -0.000109306 -5.4653e-005 -6.42159 81.2158 8.01779 -0.000218557 1.68896e-005 0.000212132 0.000901596 -0.000184827 -0.000218576 -59.9282 75.5373 58.5147 31.093 26.4205 -3.77048 -167.277 84.4999 48.8109 113.837 -5.72462 -23.9408 8.3839e-006 -2.79553 2.91198e-005 -53.5971 -16.1454 0.511259 -3.88028e-006 -24.8874 2.52406e-006 29.3299 -5.77672 -21.8255 -72.0648 39.0385 39.3397 33.3638 2.10361 14.835 0.588946 0.308273 6.35287 -99.6409 81.413 100.35 -0.0181409 3.00867e-005 -0.117315 -0.124139 0.00241114 -0.799296 -79.8382 79.5773 80.5374 -0.000260644 -0.000218558 2.35782e-005 -0.000956224 0.000123008 -2.73102e-005 -66.7416 80.4058 67.2171 -0.00043713 1.48898e-005 -2.73131e-005 -0.000136601 -0.000109271 -5.46311e-005 -6.42159 81.2158 8.01779 -0.000218563 1.95868e-005 0.000212303 0.000901587 -0.000191234 -0.000218558 0.000811311 0.56661 89.91 -7.34317 1.3539 5.52627 3.29965e-007 -2.04295 -9.75598e-010 33.8758 -2.69298 -0.00466126 -1.42802e-007 -4.10327 -1.44814e-007 -43.1596 -1.50478 1.36349 -65.3422 5.32988 0.264329 -180 -0.566579 -90.09 -48.7517 -3.84506 -7.40632 -6.09918e-007 -4.50808 -1.79151e-008 32.4409 0.368584 -1.87107 3.07705e-007 0.492098 -2.60855e-007 -69.1274 -8.29184 3.40436 -35.4947 -2.24374e-005 3.46609e-006 
-402.264 174.049 -452.635 67.4609 -51.0842 70.0448 -180 4.29621e-031 -90 1.57186 0.0898869 0.719261 3.14248 0.199025 1.43579 3.14248 0.199462 1.43576 12.3965 -1.03207 3.72274 4.64937 -0.275805 -11.0867 120.092 75.5343 58.4939 21.8207 31.6902 0.346196 -167.277 84.4999 48.8109 94.3677 -34.2013 -8.92709 3.74722e-005 -42.1389 4.0014e-005 -30.2858 -12.4968 0.315247 4.26481e-007 -19.2416 2.5449e-007 21.0178 2.77183 14.8615 -72.0648 39.0385 39.3397 33.3638 2.10362 14.835 0.588947 0.308273 6.35287 -99.6409 81.413 100.35 -0.0181409 2.77678e-005 -0.117315 -0.124139 0.00241111 -0.799296 -79.8382 79.5773 80.5374 -0.000225768 -0.000220933 2.21859e-005 -0.000956215 0.000122881 -2.73323e-005 -66.7416 80.4058 67.2171 -0.000437124 1.59348e-005 -2.73292e-005 -0.000136592 -0.000109306 -5.4653e-005 -6.42159 81.2158 8.01779 -0.000218557 1.68896e-005 0.000212132 0.000901596 -0.000184827 -0.000218576 -59.9282 75.5373 58.5147 29.9282 26.1188 -3.34434 -167.277 84.4999 48.8109 113.794 -5.78232 -23.1517 8.25754e-006 -2.54716 2.91139e-005 -53.0875 -16.3488 0.508435 -3.86547e-006 -25.1915 2.53033e-006 28.7486 -5.72953 -22.0974 -72.0648 39.0385 39.3397 33.3638 2.10361 14.835 0.588946 0.308273 6.35287 -99.6409 81.413 100.35 -0.0181409 3.00867e-005 -0.117315 -0.124139 0.00241114 -0.799296 -79.8382 79.5773 80.5374 -0.000260644 -0.000218558 2.35782e-005 -0.000956224 0.000123008 -2.73102e-005 -66.7416 80.4058 67.2171 -0.00043713 1.48898e-005 -2.73131e-005 -0.000136601 -0.000109271 -5.46311e-005 -6.42159 81.2158 8.01779 -0.000218563 1.95868e-005 0.000212303 0.000901587 -0.000191234 -0.000218558 0.000811311 0.56661 89.91 -9.47298 1.19396 5.91862 3.29959e-007 -2.37217 -9.75814e-010 44.9821 -1.32444 -0.00588514 -1.37662e-007 -2.07048 -1.44537e-007 -43.1764 -1.91475 1.7151 -58.8448 8.06666 1.02163 -180 -0.566579 -90.09 -47.1132 -1.58282 -6.64707 -6.08849e-007 -1.08746 -1.78629e-008 38.8694 -0.827427 -3.24032 2.99469e-007 -1.31667 -2.60915e-007 -66.281 -5.15554 2.01789 -35.4947 -3.44839e-005 4.53635e-006 
-397.875 172.577 -446.806 70.0043 -48.9954 73.0502 -180 4.29621e-031 -90 1.56244 -0.00608836 0.994036 3.12476 0.0144919 1.98787 3.12476 0.0149284 1.98784 12.4849 -1.14199 1.86787 4.62462 -0.646324 -9.24438 120.092 75.5343 58.4939 23.2657 29.6085 -0.482026 -167.277 84.4999 48.8109 91.7442 -35.0645 -7.74648 3.86597e-005 -43.375 4.08203e-005 -29.9439 -11.0992 0.310364 4.16718e-007 -17.1408 2.51442e-007 21.0525 2.80827 15.0297 -72.0648 39.0385 39.3397 33.3638 2.10362 14.835 0.588947 0.308273 6.35287 -99.6409 81.413 100.35 -0.0181409 2.77678e-005 -0.117315 -0.124139 0.00241111 -0.799296 -79.8382 79.5773 80.5374 -0.000225768 -0.000220933 2.21859e-005 -0.000956215 0.000122881 -2.73323e-005 -66.7416 80.4058 67.2171 -0.000437124 1.59348e-005 -2.73292e-005 -0.000136592 -0.000109306 -5.4653e-005 -6.42159 81.2158 8.01779 -0.000218557 1.68896e-005 0.000212132 0.000901596 -0.000184827 -0.000218576 -59.9282 75.5373 58.5147 29.4221 25.9886 -3.16086 -167.277 84.4999 48.8109 114.256 -5.84591 -24.1117 8.41299e-006 -2.8527 2.91213e-005 -53.0571 -17.4474 0.511271 -3.78392e-006 -26.8395 2.5661e-006 27.7157 -5.64155 -22.5899 -72.0648 39.0385 39.3397 33.3638 2.10361 14.835 0.588946 0.308273 6.35287 -99.6409 81.413 100.35 -0.0181409 3.00867e-005 -0.117315 -0.124139 0.00241114 -0.799296 -79.8382 79.5773 80.5374 -0.000260644 -0.000218558 2.35782e-005 -0.000956224 0.000123008 -2.73102e-005 -66.7416 80.4058 67.2171 -0.00043713 1.48898e-005 -2.73131e-005 -0.000136601 -0.000109271 -5.46311e-005 -6.42159 81.2158 8.01779 -0.000218563 1.95868e-005 0.000212303 0.000901587 -0.000191234 -0.000218558 0.000811311 0.56661 89.91 -17.3867 -1.00233 3.18293 3.29944e-007 -3.30248 -9.76599e-010 59.3183 0.795806 -0.00714211 -1.29693e-007 1.08945 -1.44469e-007 -47.4969 -1.49723 1.06568 -49.1404 10.6189 0.718133 -180 -0.566579 -90.09 -44.4036 0.957144 -5.48783 -6.07664e-007 2.71338 -1.78798e-008 45.8186 -2.7995 -0.542515 2.85921e-007 -4.28484 -2.61577e-007 -67.2919 -3.57466 1.0591 -35.4947 -3.09214e-005 3.81859e-006 
-393.955 171.357 -441.375 70.6189 -46.8956 74.9967 -180 4.29621e-031 -90 1.67592 -0.0772062 1.16151 3.35308 -0.120833 2.32478 3.35308 -0.120397 2.32475 11.2883 -1.27364 1.58486 4.25924 -0.797225 -8.17121 120.092 75.5343 58.4939 25.3509 29.0726 -1.37615 -167.277 84.4999 48.8109 90.1724 -34.5137 -8.86821 3.88883e-005 -43.6074 4.09776e-005 -29.8388 -10.6596 0.302377 4.13694e-007 -16.48 2.50567e-007 20.6841 2.81849 15.3553 -72.0648 39.0385 39.3397 33.3638 2.10362 14.835 0.588947 0.308273 6.35287 -99.6409 81.413 100.35 -0.0181409 2.77678e-005 -0.117315 -0.124139 0.00241111 -0.799296 -79.8382 79.5773 80.5374 -0.000225768 -0.000220933 2.21859e-005 -0.000956215 0.000122881 -2.73323e-005 -66.7416 80.4058 67.2171 -0.000437124 1.59348e-005 -2.73292e-005 -0.000136592 -0.000109306 -5.4653e-005 -6.42159 81.2158 8.01779 -0.000218557 1.68896e-005 0.000212132 0.000901596 -0.000184827 -0.000218576 -59.9282 75.5373 58.5147 29.2647 25.6781 -3.11785 -167.277 84.4999 48.8109 114.703 -5.80926 -26.1472 8.73104e-006 -3.47733 2.91388e-005 -53.1975 -18.6315 0.515742 -3.69329e-006 -28.6161 2.60827e-006 27.0486 -5.60191 -22.995 -72.0648 39.0385 39.3397 33.3638 2.10361 14.835 0.588946 0.308273 6.35287 -99.6409 81.413 100.35 -0.0181409 3.00867e-005 -0.117315 -0.124139 0.00241114 -0.799296 -79.8382 79.5773 80.5374 -0.000260644 -0.000218558 2.35782e-005 -0.000956224 0.000123008 -2.73102e-005 -66.7416 80.4058 67.2171 -0.00043713 1.48898e-005 -2.73131e-005 -0.000136601 -0.000109271 -5.46311e-005 -6.42159 81.2158 8.01779 -0.000218563 1.95868e-005 0.000212303 0.000901587 -0.000191234 -0.000218558 0.000811311 0.56661 89.91 -29.784 -2.79693 -0.260497 3.29932e-007 -3.98981 -9.77346e-010 70.9264 2.17023 -0.00785062 -1.24517e-007 3.13982 -1.4466e-007 -52.6352 -0.248434 -0.165159 -47.086 11.7092 0.616298 -180 -0.566579 -90.09 -41.6931 -0.560043 -6.49188 -6.08234e-007 0.886753 -1.78619e-008 50.8405 -1.86269 -0.0063313 2.92309e-007 -2.88719 -2.61177e-007 -72.3251 -4.34058 1.06545 -35.4947 6.11888e-008 1.07616e-007 
-390.13 170.512 -436.181 69.2227 -45.4295 75.0427 -180 4.29621e-031 -90 1.77098 -0.0585579 1.08439 3.54277 -0.0840037 2.17006 3.54277 -0.0835674 2.17004 9.21769 -1.36023 1.90411 4.35416 -0.858646 -6.83257 120.092 75.5343 58.4939 27.5053 29.3104 -2.2253 -167.277 84.4999 48.8109 89.7135 -33.1369 -10.954 3.82937e-005 -42.9992 4.05697e-005 -29.7585 -11.27 0.288846 4.17885e-007 -17.3945 2.51788e-007 20.4014 2.85394 15.7635 -72.0648 39.0385 39.3397 33.3638 2.10362 14.835 0.588947 0.308273 6.35287 -99.6409 81.413 100.35 -0.0181409 2.77678e-005 -0.117315 -0.124139 0.00241111 -0.799296 -79.8382 79.5773 80.5374 -0.000225768 -0.000220933 2.21859e-005 -0.000956215 0.000122881 -2.73323e-005 -66.7416 80.4058 67.2171 -0.000437124 1.59348e-005 -2.73292e-005 -0.000136592 -0.000109306 -5.4653e-005 -6.42159 81.2158 8.01779 -0.000218557 1.68896e-005 0.000212132 0.000901596 -0.000184827 -0.000218576 -59.9282 75.5373 58.5147 29.667 25.461 -3.27781 -167.277 84.4999 48.8109 115.443 -5.89029 -28.3918 9.09262e-006 -4.18643 2.9163e-005 -53.5349 -19.459 0.520639 -3.62811e-006 -29.8579 2.64011e-006 26.9208 -5.66503 -23.359 -72.0648 39.0385 39.3397 33.3638 2.10361 14.835 0.588946 0.308273 6.35287 -99.6409 81.413 100.35 -0.0181409 3.00867e-005 -0.117315 -0.124139 0.00241114 -0.799296 -79.8382 79.5773 80.5374 -0.000260644 -0.000218558 2.35782e-005 -0.000956224 0.000123008 -2.73102e-005 -66.7416 80.4058 67.2171 -0.00043713 1.48898e-005 -2.73131e-005 -0.000136601 -0.000109271 -5.46311e-005 -6.42159 81.2158 8.01779 -0.000218563 1.95868e-005 0.000212303 0.000901587 -0.000191234 -0.000218558 0.000811311 0.56661 89.91 -44.4347 -3.74905 -2.78733 3.29916e-007 -4.92505 -9.78591e-010 75.88 2.7666 -0.00807691 -1.22261e-007 4.03115 -1.44801e-007 -56.6342 1.18852 -1.30816 -47.1558 10.8616 0.523803 -180 -0.566579 -90.09 -38.9151 -2.30654 -7.57706 -6.08878e-007 -1.17925 -1.78635e-008 53.2762 -0.665403 -0.00653048 3.0048e-007 -1.09477 -2.60893e-007 -78.6325 -5.85367 1.21562 -35.4948 9.7556e-005 -1.09761e-005 
-386.267 169.892 -431.066 66.1811 -45.2793 73.5154 -180 4.29621e-031 -90 1.77239 0.0697797 0.788087 3.54368 0.163457 1.57364 3.54368 0.163893 1.57361 6.81568 -1.15818 1.5718 4.97286 -0.784394 -3.97979 120.092 75.5343 58.4939 28.8322 29.1659 -2.76766 -167.277 84.4999 48.8109 89.7731 -31.2644 -13.0069 3.69669e-005 -41.5979 3.96768e-005 -29.4709 -12.6462 0.172483 4.27485e-007 -19.4547 2.54823e-007 20.3981 2.89482 15.9892 -72.0648 39.0385 39.3397 33.3638 2.10362 14.835 0.588947 0.308273 6.35287 -99.6409 81.413 100.35 -0.0181409 2.77678e-005 -0.117315 -0.124139 0.00241111 -0.799296 -79.8382 79.5773 80.5374 -0.000225768 -0.000220933 2.21859e-005 -0.000956215 0.000122881 -2.73323e-005 -66.7416 80.4058 67.2171 -0.000437124 1.59348e-005 -2.73292e-005 -0.000136592 -0.000109306 -5.4653e-005 -6.42159 81.2158 8.01779 -0.000218557 1.68896e-005 0.000212132 0.000901596 -0.000184827 -0.000218576 -59.9282 75.5373 58.5147 31.255 25.8186 -3.85248 -167.277 84.4999 48.8109 116.994 -6.38678 -30.2653 9.43137e-006 -4.8496 2.91897e-005 -54.1876 -19.8444 0.526257 -3.59715e-006 -30.4373 2.65566e-006 27.0586 -5.80287 -23.7893 -72.0648 39.0385 39.3397 33.3638 2.10361 14.835 0.588946 0.308273 6.35287 -99.6409 81.413 100.35 -0.0181409 3.00867e-005 -0.117315 -0.124139 0.00241114 -0.799296 -79.8382 79.5773 80.5374 -0.000260644 -0.000218558 2.35782e-005 -0.000956224 0.000123008 -2.73102e-005 -66.7416 80.4058 67.2171 -0.00043713 1.48898e-005 -2.73131e-005 -0.000136601 -0.000109271 -5.46311e-005 -6.42159 81.2158 8.01779 -0.000218563 1.95868e-005 0.000212303 0.000901587 -0.000191234 -0.000218558 0.000811311 0.56661 89.91 -58.4825 -4.07053 -4.90511 3.299e-007 -5.85697 -9.80094e-010 72.9751 3.14487 -0.00800017 -1.20818e-007 4.60033 -1.44909e-007 -59.9022 2.50689 -2.22226 -38.2805 7.15928 -0.418157 -180 -0.566579 -90.09 -36.1765 -3.46768 -7.80313 -6.09311e-007 -2.56758 -1.78777e-008 53.4125 0.488445 -0.0065665 3.08359e-007 0.635808 -2.60862e-007 -83.4372 -6.71678 1.10714 -35.63 0.341883 -0.0360066 
